<svg xmlns="http://www.w3.org/2000/svg" xml:space="preserve" id="图层_1" x="0" y="0" style="enable-background:new 0 0 400 100.92" version="1.1" viewBox="0 0 400 100.92"><style>.st0{fill:#52aebe}.st1{fill:#0f3d96}</style><path d="m84.46 8.77 2.44-1.4c2.98-1.7 5.95-3.42 8.93-5.1.95-.54 1.88-1.12 2.9-1.53a5.26 5.26 0 0 1 4.74.46l11.5 6.56c2.54 1.45 5.06 2.91 7.62 4.32 1.81 1 2.15 3.21 1.73 4.55-.56 1.78-1.88 2.67-3.6 3.09a6 6 0 0 1-4.57-.83c-1.38-.81-2.77-1.59-4.16-2.38l-4.53-2.61c-1.6-.91-3.2-1.85-4.83-2.71a4.03 4.03 0 0 0-4.17.1c-1.49.87-2.99 1.71-4.48 2.57-.25.14-.45.18-.72.02-1.53-.92-3.08-1.82-4.62-2.72l-3.95-2.32c-.01-.03-.16 0-.23-.07z" class="st0"/><path d="M79.31 43.22zM99.43 21.4c0-.63-.01-1.26-.12-1.88a5.65 5.65 0 0 0-2.6-3.94c-1.22-.77-2.51-1.42-3.76-2.13-3.69-2.1-7.32-4.32-10.99-6.46-3.38-1.96-6.76-3.9-10.16-5.83a5.3 5.3 0 0 0-5.56.02L55.89 7.14c-4.65 2.67-9.29 5.34-13.95 8a5.54 5.54 0 0 0-3.02 5.2c.03 3.1.01 6.21.01 9.31 0 6.21-.01 12.42.01 18.63a5.27 5.27 0 0 0 2.48 4.62c1.64 1.08 3.4 1.97 5.1 2.97 3.6 2.1 7.23 4.16 10.84 6.24 2.92 1.68 5.82 3.38 8.75 5.05a5.46 5.46 0 0 0 4.86.47c1.04-.41 1.97-1.04 2.93-1.59l7.2-4.14 3.74-2.13c-.68-.39-.72-1.12-1.38-1.49-2.27-1.29-4.67-2.34-6.94-3.63-.22-.13-.33-.39-.57-.24-1.17.7-3.23 1.93-4.42 2.59-.85.47-1.72.89-2.74.81a5.75 5.75 0 0 1-2.44-.92l-7.01-4.03c-3.03-1.74-6.06-3.5-9.1-5.22-1.27-.72-2.1-1.71-2.25-3.19l-.03-.39V24.51c0-1.37.43-2.57 1.63-3.3 2.45-1.47 4.94-2.87 7.41-4.29 1.94-1.12 3.87-2.26 5.82-3.36 1.45-.82 2.86-1.71 4.36-2.46a3.73 3.73 0 0 1 3.66.03c1.95 1.08 3.88 2.21 5.81 3.32 2.6 1.5 8.84 5.08 11.47 6.54 1.22.68-1.16-.79 0 0 .45.3.91.59 1.24 1.04.18.25.23.45-.16.57-.39.12-.76.31-1.13.47l-8.54 3.56c-.21.09-.33.18-.32.44.02.45-.02.9-.01 1.36.02.81-.01 1.63.08 2.48l7.38-3.1 3.12-1.3c.23-.1.35-.11.34.2v3.12c0 .24-.08.4-.33.51l-2.88 1.2-7.36 3.07c-.18.08-.28.17-.28.39v3.69c0 .24.06.27.28.18l5.62-2.36 4.61-1.94c.23-.1.34-.06.34.23a158.1 158.1 0 0 0 0 3.08c0 .29-.12.45-.39.56-.41.15-.81.34-1.21.51-1.98.83-3.97 1.64-5.95 2.49-1.07.46-2.17.85-3.21 1.39.05.49-.09.99.07 1.47.28-.57.74-.8 1.22-.64.46.15.72.58.65 1.06a.93.93 0 0 1-1.32.72c-.18-.08-.31-.21-.45-.34l-.09.19c.04.34.23.62.39.92.16.29.33.41.69.25 1.8-.77 3.61-1.51 5.42-2.27l4.26-1.78c.09.24.05.46-.04.66a5.08 5.08 0 0 1-1.97 2.28c-.37.22-.73.44-1.04.74-.97.94-.91 1.99.15 2.84.89.71 1.83 1.35 2.84 1.88 1.32.7 2.68 1.25 4.23 1.05 1.34-.17 2.8-.64 3.7-1.7 1.19-1.41 1.36-3.06 1.36-4.87V21.4zm-19.04 7.82a.97.97 0 0 1-.99-.95c0-.54.44-.96.99-.95.54.01.93.42.93.95a.93.93 0 0 1-.93.95zm8.11 4.72c-.47-.01-.92-.43-.92-.88a.99.99 0 0 1 .97-1.02c.52-.01.95.41.96.93 0 .58-.41.98-1.01.97zM79.44 45.25l-.03-.1.03.1z" class="st1"/><path d="M79.5 45.03h.02c-.1-.25-.11-.51-.09-.77a.16.16 0 0 1-.09-.03c-.01-.34-.04-.68-.02-1.02-.07.65-.09 1.29.1 1.93-.01-.04.01-.08.08-.11z" class="st1"/><path d="m79.34 44.24.09.03c-.15-.49-.01-.98-.07-1.47l-.05.43c-.01.33.02.67.03 1.01zM79.52 45.03h-.02c-.07.03-.09.07-.09.12l.03.1.09-.19-.01-.03zM79.52 45.03h.01M79.43 44.26zM79.52 45.03l.01.02v-.02h-.01z" class="st1"/><path d="M70.09 35.53c0-4.23-.01-8.45.01-12.68.01-2.02.81-3.7 2.39-4.99a5.06 5.06 0 0 1 5.93-.53c1.29.71 2.56 1.45 3.83 2.2a1.84 1.84 0 0 1 .01 3.17c-.73.45-1.48.85-2.02 1.55-.6.76-.93 1.61-.93 2.56 0 4.58.02 9.17.06 13.75.01 1.23.02 2.46 0 3.69-.02 1.5.79 2.54 1.99 3.28 1.66 1.02 3.36 1.98 5.05 2.94 1.57.9 3.15 1.76 4.72 2.65 1.74.98 3.46 1.98 5.2 2.95.9.5 1.74 1.08 2.71 1.46 1.21.48 2.38.35 3.48-.27 3.94-2.22 7.87-4.47 11.81-6.69.95-.53 1.87-1.11 2.88-1.53a5.6 5.6 0 0 1 6.33 1.68 3.94 3.94 0 0 1-.98 5.52c-1.6 1-3.26 1.9-4.9 2.83l-9.24 5.23c-1.64.93-3.27 1.88-4.92 2.8-2.18 1.22-4.3 1.06-6.44-.2-3.03-1.79-6.12-3.49-9.18-5.23-3.43-1.95-6.85-3.9-10.29-5.84-1.66-.94-3.35-1.83-4.95-2.86a5.32 5.32 0 0 1-2.54-4.71c-.03-4.25-.01-8.49-.01-12.73z" class="st0"/><path d="M227.53 53.38a704.15 704.15 0 0 1-26.1 5.77v16.31L227 71.39c-.04 3.4.01 5.41.11 10.54-30.41 6.31-24.13 5.37-38.36 8.2 0-2.8.33-12.48.33-16.76V51.59c10.65-1.99 22.62-4.55 30.25-7.86l8.2 9.65zm32.12-9.64h-64.27V5.94h74.17v28.37c.01 5.2-4.43 9.43-9.9 9.43zm-3.31-28.55h-48.48v5.37h48.48v-5.37zm0 14.02h-48.48v5.27h45.82a2.63 2.63 0 0 0 2.66-2.6v-2.67zm18.93 47.74c0 5.47-1.16 8.26-5.16 9.95-3.79 1.69-9.68 1.77-17.16 1.77-.1-3.28-.21-6.69-.24-10.41 4.42.2 6.66.09 8.03.09 1.37-.1 1.9-.4 1.9-1.59v-18.2h-18.01v36.8H232.3V48.51h42.97v28.44zM343.67 76.21c.1 3.08.61 7.56 1.12 10.05-6.56 3.74-25.48 7.9-36.29 9.2-.07-2.87-.08-12.29-.08-15.87V59h25.05c2.14 0 3.88-1.7 3.88-3.79v-4.17h-30.86V40.7h41.76v20.36a8.48 8.48 0 0 1-8.58 8.38h-21.16v11.84c4.41-.06 8.63-.28 12.84-1.26 4.43-1.02 8.23-2.38 12.32-3.81zm-3.15-41.38H306.9V9.37h9.68v16.31h6.62V4.1h10.29v21.58a6.25 6.25 0 0 0 6.32-6.17V9.37h10.08v16.32a9.27 9.27 0 0 1-9.37 9.14zm48.79 50.73c1.8-.07 1.43-2.69 1.63-12.73a30.22 30.22 0 0 0 9.07 4.28c-.71 12.63-3.26 17.11-9.68 17.11h-4.99c-7.64 0-9.47-3.18-9.47-13.33V18.62h-8.66V40.1c0 16.71-1.83 41.57-13.65 57.09-1.63-2.09-6.42-6.07-8.86-7.26C355.18 75.81 356 55.22 356 40.01V8.68h30.56v72.21c0 4.08.21 4.67 1.12 4.67h1.63zM9.9 100.92c-3.83 0-6.6-1.26-8.31-3.79C.1 94.93-.34 92.1.27 88.62c.77-4.39 2.79-7.68 6.06-9.85a14.08 14.08 0 0 1 7.88-2.26c3.92 0 6.74 1.27 8.45 3.82 1.41 2.15 1.81 4.92 1.22 8.29-.75 4.27-2.7 7.53-5.83 9.78a13.75 13.75 0 0 1-8.15 2.52zm.72-4.07c2.39 0 4.34-1.05 5.85-3.17a11.94 11.94 0 0 0 2.04-5.06c.6-3.42.01-5.79-1.77-7.11a5.38 5.38 0 0 0-3.24-.96 6.9 6.9 0 0 0-5.97 3.26 11.93 11.93 0 0 0-1.86 4.81c-.59 3.33-.05 5.71 1.63 7.14a4.96 4.96 0 0 0 3.32 1.09zM25.17 100.48l3.14-17.8h4.28l-.04 1.53s2.08-1.9 6.89-1.66c4.1.2 5.94 2.09 5.13 6.84l-1.96 11.09h-5.26l1.86-10.53c.36-2.05-.01-3.25-1.1-3.6a3.51 3.51 0 0 0-1.06-.12c-1.86.07-2.82.56-3.55 1.19-.46.4-.96.93-1.2 2.04l-1.95 11.03h-5.18zM46.62 100.48l3.13-18.26h5.09l-1.47 8.35 7.08-8.35h5.72l-7.39 9.29 6.61 8.97h-5.75l-6.58-8.24-1.45 8.24h-4.99zM75.21 100.92c-2.69 0-4.82-.86-6.37-2.58-1.55-1.76-2.08-4.01-1.59-6.74a10.79 10.79 0 0 1 4.82-7.39 11.4 11.4 0 0 1 6.44-1.99c2.69 0 4.8.87 6.33 2.61 1.54 1.76 2.07 4.02 1.59 6.77a10.77 10.77 0 0 1-4.82 7.36 11.3 11.3 0 0 1-6.4 1.96zm.68-3.82c1.9 0 3.35-.96 4.34-2.89a9.3 9.3 0 0 0 .84-2.61c.47-2.67-.04-4.4-1.52-5.19a3.71 3.71 0 0 0-1.71-.37c-1.88 0-3.32.93-4.33 2.79a9.49 9.49 0 0 0-.9 2.77c-.46 2.61.04 4.31 1.5 5.09.51.27 1.1.41 1.78.41zM99.17 100.92c-3.45 0-6.61-1.85-7.85-4.16-1.23-2.31-1.62-4.72-.91-8.26.78-3.89 2.8-6.8 6.02-9.24a14.24 14.24 0 0 1 8.91-2.74c7.74.24 7.18 6 7.21 6.04l-4.42-.13c-.18-.92-1.84-1.84-3.48-1.84-2.27 0-4.29.89-6.07 2.68a11.87 11.87 0 0 0-2.95 5.08c-.96 3.21-.69 5.35.89 6.68a6.6 6.6 0 0 0 3.79 1.34c1.94-.02 5.13-.77 6.47-3.34l4.5-.01c-2.21 7.07-8.84 7.9-12.11 7.9zM118.98 100.92c-2.21 0-3.72-.75-4.55-2.24a4.5 4.5 0 0 1-.44-3.04c.44-2.49 2.34-4.26 5.71-5.31 1.82-.58 4.14-1 6.95-1.27.22-2.03-.73-3.05-2.83-3.08-1.53.02-3.47.58-5.8 1.68l-1.34-3.07c3.16-1.57 6.07-2.36 8.74-2.36 4.45 0 6.62 2.03 6.48 6.09-.03.56-.1 1.15-.21 1.77l-1.84 10.41h-4.25l-.09-1.89h-.1c-2.31 1.53-4.46 2.31-6.43 2.31zm2.35-3.64c1.28-.02 2.67-.61 4.18-1.77l.63-3.57c-4.28.6-6.64 1.71-7.06 3.32-.22 1.22.4 1.88 1.84 1.99.13.02.27.03.41.03zM133.87 100.48l3.14-17.8h4.28l-.21 3.13h.14c1.55-1.92 3.27-3.08 5.17-3.48a6.16 6.16 0 0 1 3.44.28l-1.65 4.04c-.7-.2-1.38-.31-2.03-.31-1.6 0-3.06.78-4.39 2.36-.3.35-.57.74-.83 1.15l-1.87 10.62h-5.19zM159.34 100.92c-3.13 0-5.46-.96-6.98-2.89-1.33-1.7-1.76-3.84-1.3-6.43a11.04 11.04 0 0 1 4.63-7.3 10.88 10.88 0 0 1 6.32-2.08c3.32 0 5.49 1.21 6.49 3.63a8.7 8.7 0 0 1 .35 4.91 7.69 7.69 0 0 1-.62 2.11H155.9c-.08 2.17.83 3.57 2.74 4.19.59.19 1.26.28 2.01.28 1.54-.02 3.1-.43 4.71-1.24l1.27 2.86a14.67 14.67 0 0 1-7.29 1.96zm-2.95-11.12h8.15c.4-2.3-.37-3.59-2.31-3.88a4.96 4.96 0 0 0-4.79 1.89c-.45.58-.8 1.24-1.05 1.99z" class="st1"/></svg>